<?xml version="1.0" encoding="utf-8"?>
<!-- Generator: Adobe Illustrator 25.0.1, SVG Export Plug-In . SVG Version: 6.00 Build 0)  -->
<svg version="1.1" id="图层_1" xmlns="http://www.w3.org/2000/svg" xmlns:xlink="http://www.w3.org/1999/xlink" x="0px" y="0px"
	 viewBox="0 0 115 113.1" style="enable-background:new 0 0 115 113.1;" xml:space="preserve">
<style type="text/css">
	.st0{fill:#9FE2FF;stroke:#000000;stroke-miterlimit:10;}
	.st1{fill:#576B75;}
</style>
<rect x="-19.9" y="-18.1" class="st0" width="154.8" height="149.4"/>
<g>
	<g>
		<g>
			<path class="st1" d="M30.8,63.3L30.8,63.3c1.7,1.4,4.2,1,5.5-0.7l23.9-31.5c1.3-1.7,1-4.2-0.7-5.6l0,0c-1.7-1.4-4.2-1-5.5,0.7
				L30.1,57.7C28.8,59.4,29.1,61.9,30.8,63.3z"/>
		</g>
		<g>
			<path class="st1" d="M67.6,86.9L67.6,86.9c-1.3,1.8-3.8,2.1-5.5,0.7L30.9,63.4c-1.7-1.3-2-3.8-0.7-5.6l0,0
				c1.3-1.8,3.8-2.1,5.5-0.7l31.2,24.2C68.6,82.6,68.9,85.1,67.6,86.9z"/>
		</g>
	</g>
	<g>
		<g>
			<path class="st1" d="M52.9,44.8V46c0,2,1.6,3.6,3.6,3.6h25.6c2,0,3.6-1.6,3.6-3.6v-1.2c0-2-1.6-3.6-3.6-3.6H56.5
				C54.5,41.3,52.9,42.9,52.9,44.8z"/>
		</g>
		<g>
			<path class="st1" d="M63.4,88.1L63.4,88.1c2.3,0.9,4.8-0.2,5.7-2.3L85.4,47c0.9-2.1-0.2-4.6-2.5-5.4l0,0
				c-2.3-0.9-4.8,0.2-5.7,2.3L61,82.7C60,84.8,61.1,87.3,63.4,88.1z"/>
		</g>
	</g>
</g>
</svg>
