<?xml version="1.0" encoding="utf-8"?>
<!-- Generator: Adobe Illustrator 25.0.1, SVG Export Plug-In . SVG Version: 6.00 Build 0)  -->
<svg version="1.1" id="图层_1" xmlns="http://www.w3.org/2000/svg" xmlns:xlink="http://www.w3.org/1999/xlink" x="0px" y="0px"
	 viewBox="0 0 373.9 373.9" style="enable-background:new 0 0 373.9 373.9;" xml:space="preserve">
<style type="text/css">
	.st0{display:none;}
	.st1{display:inline;fill:#9FE2FF;}
	.st2{fill:#576B75;}
</style>
<g class="st0">
	<path class="st1" d="M354.4,433H78.6C35.2,433,0,397.8,0,354.4V78.6C0,35.2,35.2,0,78.6,0h275.7C397.8,0,433,35.2,433,78.6v275.7
		C433,397.8,397.8,433,354.4,433z"/>
</g>
<g>
	<g>
		<g>
			<path class="st2" d="M54.5,220.3L54.5,220.3c8.6,6.7,20.7,5.1,27.3-3.5l118.3-156c6.5-8.6,4.9-21-3.5-27.7l0,0
				c-8.6-6.7-20.7-5.1-27.3,3.5L51,192.5C44.4,201.2,46,213.5,54.5,220.3z"/>
		</g>
		<g>
			<path class="st2" d="M237,337.3L237,337.3c-6.5,8.7-18.7,10.3-27.3,3.7L55,220.9c-8.6-6.6-10.2-19-3.7-27.7l0,0
				c6.5-8.7,18.7-10.3,27.3-3.7l154.5,120C241.8,316.2,243.5,328.7,237,337.3z"/>
		</g>
	</g>
	<g>
		<g>
			<path class="st2" d="M164.2,128.9v6.1c0,9.8,7.8,17.6,17.6,17.6h127.1c9.8,0,17.6-7.8,17.6-17.6v-6.1c0-9.8-7.8-17.6-17.6-17.6
				H181.8C172.1,111.2,164.2,119.1,164.2,128.9z"/>
		</g>
		<g>
			<path class="st2" d="M216.3,343.5L216.3,343.5c11.3,4.3,23.9-1,28.4-11.6l80.8-192.1c4.4-10.6-1-22.6-12.2-26.9l0,0
				c-11.3-4.3-23.9,1-28.4,11.6l-80.8,192.1C199.5,327.2,205,339.2,216.3,343.5z"/>
		</g>
	</g>
</g>
</svg>
